<svg width="30.9002" height="6.9912" xmlns="http://www.w3.org/2000/svg">

 <g>
  <title>background</title>
  <rect fill="none" id="canvas_background" height="402" width="582" y="-1" x="-1"/>
 </g>
 <g>
  <title>Layer 1</title>
  <path id="svg_1" d="m28.805,3.6324l1.0476,0" fill="none" stroke-linejoin="round" stroke-linecap="round" stroke-width="2.0952" stroke="#8c8c8c"/>
  <path id="svg_2" d="m2.0952,3.6324l-1.0476,0" fill="none" stroke-linejoin="round" stroke-linecap="round" stroke-width="2.0952" stroke="#8c8c8c"/>
  <g id="svg_3">
   <g id="breadboard">
    <rect fill="none" width="0.72" height="0.72" x="0.36" id="connector0pin" y="2.5848"/>
    <rect fill="none" width="0.72" height="0.72" x="29.8202" id="connector1pin" y="2.5848"/>
    <line y1="3.6324" x1="1.0476" fill="none" stroke-linecap="round" id="connector0leg" x2="2.0952" stroke="#8C8C8C" stroke-width="2.0952" y2="3.6324"/>
    <line y1="3.6324" x1="29.8526" fill="none" stroke-linecap="round" id="connector1leg" x2="28.805" stroke="#8C8C8C" stroke-width="2.0952" y2="3.6324"/>
    <path id="svg_4" fill="none" d="m1.0476,3.6324l28.3666,0" stroke="#8C8C8C" stroke-width="2.0952"/>
    <path fill="#D9B477" d="m10.2478,0.49536c-0.36,-0.1656 -0.979199,-0.2952 -1.3752,-0.2952l-1.9872,0c-0.396,0 -0.72,0.324 -0.72,0.72l0,5.35608c0,0.39672 0.324,0.72 0.72,0.72l1.9872,0c0.396001,0 1.015201,-0.13608 1.3752,-0.2952l0.072001,-0.03528c0.36,-0.1656 0.979199,-0.2952 1.375199,-0.2952l7.1856,0c0.396721,0 1.014481,0.13608 1.374479,0.2952l0.072721,0.03528c0.359999,0.1656 0.977758,0.2952 1.375198,0.2952l1.987202,0c0.39744,0 0.719999,-0.32328 0.719999,-0.72l0,-5.35608c0,-0.396 -0.322559,-0.72 -0.719999,-0.72l-1.987202,0c-0.39744,0 -1.0152,0.1368 -1.375198,0.2952l-0.072721,0.036c-0.359999,0.1656 -0.977758,0.2952 -1.374479,0.2952l-7.1856,0c-0.396,0 -1.0152,-0.1368 -1.375199,-0.2952l-0.072001,-0.036z" id="body"/>
    <rect fill="#ad9f4e" width="0.70272" height="6.79536" x="22.019" id="gold_band" y="0.19368"/>
    <rect fill="#bf0000" width="1.8504" height="5.5368" x="16.1726" id="band_rd_multiplier" y="0.82656"/>
    <rect fill="#0000bf" width="1.8504" height="5.5368" x="12.4726" id="band_2_nd" y="0.82656"/>
    <path fill="#00bf00" d="m10.6286,0.63936c-0.1152,-0.036 -0.2232,-0.072 -0.3096,-0.1152l-0.072001,-0.036c-0.36,-0.16488 -0.979199,-0.2952 -1.375199,-0.2952l-0.0864,0l0,6.79608l0.0864,0c0.396,0 1.0152,-0.13608 1.375199,-0.2952l0.072001,-0.03528c0.0864,-0.04464 0.1944,-0.07992 0.3096,-0.1152l0,-5.904z" id="band_1_st"/>
    <path fill="#422C10" d="m23.711,4.0896l0,0c0,0.37944 -0.13032,0.69912 -0.2952,0.69912l-1.9224,0c-0.380161,0 -0.97776,-0.05616 -1.33272,-0.1224l-0.072681,-0.01584c-0.344879,-0.0648 -0.948959,-0.1224 -1.333439,-0.1224l-6.946561,0c-0.381599,0 -0.979199,0.0576 -1.332,0.1224l-0.072,0.01512c-0.3456,0.06552 -0.9432,0.1224 -1.332001,0.1224l-0.316799,0l-1.000801,0l-0.3096,0c-0.3816,0 -0.6984,0.29376 -0.6984,0.64512l0,0.24696l0,0.15912l0,0.1728c0,0.36 0.3168,0.64512 0.6984,0.64512l1.62,0c0.381599,0 0.979199,-0.1224 1.332,-0.26712l0.072,-0.02808c0.3456,-0.14112 0.9504,-0.26496 1.332001,-0.26496l6.94656,0c0.37944,0 0.977039,0.12384 1.33416,0.26568l0.07416,0.02808c0.344881,0.14472 0.944641,0.26712 1.333441,0.26712l2.2248,0c0.38088,0 0.69912,-0.2952 0.69912,-0.64512l-0.00004,-0.54072l0,-0.97272l0,-1.84392c-0.277201,0.108 -0.702,0.4104 -0.702,1.43424z" id="Shadow" opacity="0.3"/>
    <rect width="0.70272" height="3.15288" x="22.019" id="ShadowExtra" opacity="0.4" y="3.48336"/>
    <path fill="#FFFFFF" d="m19.750999,1.08576c0.229681,0 0.491041,-0.1008 0.662401,-0.1728c0.201599,-0.0792 0.576719,-0.144 0.96624,-0.144l1.46088,0c0.22464,0 0.22464,0.2448 0.22464,0.3744c0,0.1296 -0.015121,0.3816 -0.22464,0.3816l-3.060001,0c-0.107279,0 -0.2304,-0.1152 -0.2304,-0.22392c0.006481,-0.08568 0.07848,-0.21528 0.20088,-0.21528z" id="ReflexRight" opacity="0.25"/>
    <circle cy="1.13616" fill="#FFFFFF" r="0.432" id="ReflexLeft" cx="6.99984" opacity="0.35"/>
    <rect fill="#FFFF33" width="0.70272" height="1.62" x="22.019" id="Reflex_gold" opacity="0.5" y="0.42336"/>
    <rect fill="#FFFFFF" width="0.70272" height="0.7488" x="22.019" id="Reflex_extra" opacity="0.5" y="0.78336"/>
   </g>
  </g>
 </g>
</svg>