<svg width="25.6" height="25.6" xmlns="http://www.w3.org/2000/svg">

 <g>
  <title>background</title>
  <rect fill="none" id="canvas_background" height="402" width="582" y="-1" x="-1"/>
 </g>
 <g>
  <title>Layer 1</title>
  <g id="svg_1">
   <g id="icon">
    <path id="pins" d="m22.517599,25.4104l0,-10.7656c-0.003201,-0.371201 -0.092001,-0.5168 -0.160801,-0.588l0,0c-0.071199,-0.068 -0.214399,-0.172 -0.647999,-0.1768l0,0l-18.043999,0c-0.244,-0.0016 -0.3992,0.031199 -0.4648,0.056l0,0c-0.0592,0.0128 -0.0464,0.0224 -0.0496,0.020801l0,0c0,0 -0.0096,0.0104 -0.0248,0.0608l0,0c-0.0216,0.064 -0.0464,0.1992 -0.0464,0.4024l0,0l0,10.989599l-2.16,0l0,-10.989599c-0.0016,-0.7024 0.1544,-1.4488 0.7184,-2.004l0,0c0.5664,-0.5488 1.3088,-0.6976 2.0272,-0.6976l0,0l18.044801,0c0.8256,-0.0048 1.629599,0.252 2.188,0.824l0,0c0.559999,0.5696 0.785601,1.346399 0.781599,2.1008l0,0l0.0016,10.7656l-2.1632,0l0,0.0016z" fill="#8C8C8C"/>
    <path id="body" d="m7.7288,9.6992c-0.36,-0.164 -0.9792,-0.2984 -1.3752,-0.2984l-1.9912,0c-0.396,0 -0.72,0.324 -0.72,0.72l0,5.3576c0,0.396 0.324,0.72 0.72,0.72l1.9904,0c0.396,0 1.0152,-0.134401 1.3752,-0.298401l0.0736,-0.0336c0.3608,-0.164 0.9792,-0.2984 1.3752,-0.2984l7.184801,0c0.395199,0 1.014399,0.1344 1.375198,0.2984l0.075201,0.0336c0.360001,0.164 0.9792,0.298401 1.3752,0.298401l1.9904,0c0.395199,0 0.719999,-0.324 0.719999,-0.72l0,-5.3576c0,-0.396 -0.3248,-0.72 -0.719999,-0.72l-1.9904,0c-0.396,0 -1.016001,0.1336 -1.3752,0.2976l-0.075201,0.033601c-0.359999,0.164 -0.98,0.2976 -1.375198,0.2976l-7.184801,0c-0.396,0 -1.0152,-0.1336 -1.3752,-0.2976l-0.0728,-0.032801z" fill="#D9B477"/>
    <rect x="19.5064" width="0.6968" id="gold_band" height="6.7984" y="9.4008" fill="#AD9F4E"/>
    <path id="band_1_st" d="m8.1128,9.8472c-0.1152,-0.0352 -0.22,-0.0744 -0.3104,-0.1152l-0.0736,-0.032801c-0.36,-0.164 -0.9792,-0.2984 -1.3752,-0.2984l-0.0872,0l0,6.7984l0.0872,0c0.396,0 1.0152,-0.134399 1.3752,-0.2984l0.0736,-0.0336c0.0896,-0.0408 0.1952,-0.08 0.3104,-0.116l0,-5.903999z" fill="#00bf00"/>
    <rect x="9.9592" width="1.8472" id="band_2_nd" height="5.5392" y="10.0296" fill="#005fbf"/>
    <rect x="13.6536" width="1.8472" id="band_3_rd_multiplier" height="5.5392" y="10.0296" fill="#ff0000"/>
    <path opacity="0.3" id="Shadow" d="m21.191999,13.2904l0,0c0,0.383201 -0.131201,0.6968 -0.292,0.6968l-1.9256,0c-0.3832,0 -0.980801,-0.0552 -1.329601,-0.1216l-0.071199,-0.0144c-0.3496,-0.0656 -0.948799,-0.12 -1.3312,-0.12l-6.945601,0c-0.3824,0 -0.9808,0.054399 -1.3296,0.12l-0.071199,0.0144c-0.348,0.066401 -0.9464,0.1216 -1.3296,0.1216l-0.3144,0l-0.9992,0l-0.3064,0c-0.3832,0 -0.696,0.292 -0.696,0.648l0,0.2432l0,0.1576l0,0.176c0,0.3568 0.3128,0.6488 0.696,0.6488l1.62,0c0.3832,0 0.9816,-0.1208 1.3296,-0.268l0.0712,-0.0296c0.3488,-0.1488 0.9472,-0.2688 1.3296,-0.2688l6.9456,0c0.383202,0 0.982401,0.12 1.331202,0.2688l0.071199,0.0296c0.3496,0.1472 0.9464,0.268 1.329599,0.268l2.2272,0c0.383202,0 0.6968,-0.2912 0.6968,-0.6488l0,-0.5432l0,-0.974401l0,-1.8456c-0.278399,0.12 -0.7064,0.42 -0.7064,1.4416z"/>
    <rect x="19.5064" width="0.6968" opacity="0.4" id="ShadowExtra" height="3.1504" y="12.6888"/>
    <path opacity="0.25" id="ReflexRight" d="m17.2328,10.2904c0.232,0 0.4904,-0.1016 0.664,-0.1704c0.200802,-0.08 0.573601,-0.146399 0.967199,-0.146399l1.4624,0c0.2248,0 0.2248,0.247999 0.2248,0.3712s-0.0112,0.3824 -0.2248,0.3824l-3.058399,0c-0.108799,0 -0.2264,-0.1128 -0.2264,-0.224799c0,-0.0776 0.0688,-0.212001 0.1912,-0.212001z" fill="#FFFFFF"/>
    <circle cy="10.3384" opacity="0.35" id="ReflexLeft" r="0.4328" fill="#FFFFFF" cx="4.4848"/>
    <rect x="19.5064" width="0.6968" opacity="0.5" id="Reflex_gold" height="1.62" y="9.6288" fill="#FFFF33"/>
    <rect x="19.5064" width="0.6968" opacity="0.5" id="Reflex_extra" height="0.7504" y="9.9888" fill="#FFFFFF"/>
   </g>
  </g>
 </g>
</svg>