<svg width="79.8998" height="51.121" xmlns="http://www.w3.org/2000/svg">

 <g>
  <title>background</title>
  <rect fill="none" id="canvas_background" height="402" width="582" y="-1" x="-1"/>
 </g>
 <g>
  <title>Layer 1</title>
  <g id="svg_1">
   <g id="schematic">
    <rect id="svg_2" y="0.36" fill="#FFFFFF" width="64.8019" x="7.54998" height="50.4"/>
    <g id="svg_3" transform="matrix(1, 0, 0, 1, 25.5792, 23.293)">
     <g id="svg_4">
      <text id="label" font-family="'DroidSans'" font-size="4.24999">MCP4161</text>
     </g>
    </g>
    <line id="svg_5" stroke="#000000" stroke-linecap="round" x1="7.54998" fill="none" y1="0.36" stroke-width="0.899998" x2="72.3499" y2="0.36"/>
    <line id="svg_6" stroke="#000000" stroke-linecap="round" x1="72.3499" fill="none" y1="0.36" stroke-width="0.899998" x2="72.3499" y2="50.76"/>
    <line id="svg_7" stroke="#000000" stroke-linecap="round" x1="72.3499" fill="none" y1="50.76" stroke-width="0.899998" x2="7.54998" y2="50.76"/>
    <line id="svg_8" stroke="#000000" stroke-linecap="round" x1="7.54998" fill="none" y1="50.76" stroke-width="0.899998" x2="7.54998" y2="0.36"/>
    <line stroke="#787878" id="connector7pin" stroke-linecap="round" x1="0.349999" fill="none" y1="7.56" stroke-width="0.749998" x2="7.54998" y2="7.56"/>
    <g id="connector7terminal" fill="none"/>
    <g id="svg_9" transform="matrix(1, 0, 0, 1, 3.26149, 6.5098)">
     <g id="svg_10">
      <text id="svg_11" font-family="'DroidSans'" fill="#8C8C8C" font-size="2.49999">8</text>
     </g>
    </g>
    <g id="svg_12" transform="matrix(1, 0, 0, 1, 9.64968, 8.2598)">
     <g id="svg_13">
      <text id="svg_14" font-family="'DroidSans'" fill="#787878" font-size="3.49999">VCC</text>
     </g>
    </g>
    <line stroke="#787878" id="connector5pin" stroke-linecap="round" x1="79.5498" fill="none" y1="14.76" stroke-width="0.749998" x2="72.3499" y2="14.76"/>
    <g id="connector5terminal" fill="none"/>
    <g id="svg_15" transform="matrix(1, 0, 0, 1, 75.2613, 13.709)">
     <g id="svg_16">
      <text id="svg_17" font-family="'DroidSans'" fill="#8C8C8C" font-size="2.49999">6</text>
     </g>
    </g>
    <g id="svg_18" transform="matrix(1, 0, 0, 1, 53.3795, 15.459)">
     <g id="svg_19">
      <text id="svg_20" font-family="'DroidSans'" fill="#787878" font-size="3.49999">PB6(P0W)</text>
     </g>
    </g>
    <line stroke="#787878" id="connector0pin" stroke-linecap="round" x1="79.5498" fill="none" y1="43.561" stroke-width="0.749998" x2="72.3499" y2="43.561"/>
    <g id="connector0terminal" fill="none"/>
    <g id="svg_21" transform="matrix(1, 0, 0, 1, 75.2613, 42.5098)">
     <g id="svg_22">
      <text id="svg_23" font-family="'DroidSans'" fill="#8C8C8C" font-size="2.49999">1</text>
     </g>
    </g>
    <g id="svg_24" transform="matrix(1, 0, 0, 1, 53.7448, 44.2598)">
     <g id="svg_25">
      <text id="svg_26" font-family="'DroidSans'" fill="#787878" font-size="3.49999">PB1(CS)</text>
     </g>
    </g>
    <line stroke="#787878" id="connector3pin" stroke-linecap="round" x1="0.349999" fill="none" y1="43.561" stroke-width="0.749998" x2="7.54998" y2="43.561"/>
    <g id="connector3terminal" fill="none"/>
    <g id="svg_27" transform="matrix(1, 0, 0, 1, 3.26149, 42.5098)">
     <g id="svg_28">
      <text id="svg_29" font-family="'DroidSans'" fill="#8C8C8C" font-size="2.49999">4</text>
     </g>
    </g>
    <g id="svg_30" transform="matrix(1, 0, 0, 1, 9.64968, 44.2598)">
     <g id="svg_31">
      <text id="svg_32" font-family="'DroidSans'" fill="#787878" font-size="3.49999">GND</text>
     </g>
    </g>
    <line stroke="#787878" id="connector4pin" stroke-linecap="round" x1="79.5498" fill="none" y1="7.56" stroke-width="0.749998" x2="72.3499" y2="7.56"/>
    <g id="connector4terminal" fill="none"/>
    <g id="svg_33" transform="matrix(1, 0, 0, 1, 75.2613, 6.5098)">
     <g id="svg_34">
      <text id="svg_35" font-family="'DroidSans'" fill="#8C8C8C" font-size="2.49999">5</text>
     </g>
    </g>
    <g id="svg_36" transform="matrix(1, 0, 0, 1, 53.3795, 8.2598)">
     <g id="svg_37">
      <text id="svg_38" font-family="'DroidSans'" fill="#787878" font-size="3.49999">PB5(P0A)</text>
     </g>
    </g>
    <line stroke="#787878" id="connector6pin" stroke-linecap="round" x1="79.5498" fill="none" y1="21.96" stroke-width="0.749998" x2="72.3499" y2="21.96"/>
    <g id="connector6terminal" fill="none"/>
    <g id="svg_39" transform="matrix(1, 0, 0, 1, 75.2613, 20.9102)">
     <g id="svg_40">
      <text id="svg_41" font-family="'DroidSans'" fill="#8C8C8C" font-size="2.49999">7</text>
     </g>
    </g>
    <g id="svg_42" transform="matrix(1, 0, 0, 1, 46.2067, 22.6602)">
     <g id="svg_43">
      <text id="svg_44" font-family="'DroidSans'" fill="#787878" font-size="3.49999">PB7(P0B)</text>
     </g>
    </g>
    <line stroke="#787878" id="connector1pin" stroke-linecap="round" x1="79.5498" fill="none" y1="29.16" stroke-width="0.749998" x2="72.3499" y2="29.16"/>
    <g id="connector1terminal" fill="none"/>
    <g id="svg_45" transform="matrix(1, 0, 0, 1, 75.2613, 28.1094)">
     <g id="svg_46">
      <text id="svg_47" font-family="'DroidSans'" fill="#8C8C8C" font-size="2.49999">2</text>
     </g>
    </g>
    <g id="svg_48" transform="matrix(1, 0, 0, 1, 53.4665, 29.8594)">
     <g id="svg_49">
      <text id="svg_50" font-family="'DroidSans'" fill="#787878" font-size="3.49999">PB2(SCK)</text>
     </g>
    </g>
    <line stroke="#787878" id="connector2pin" stroke-linecap="round" x1="79.5498" fill="none" y1="36.359" stroke-width="0.749998" x2="72.3499" y2="36.359"/>
    <g id="connector2terminal" fill="none"/>
    <g id="svg_51" transform="matrix(1, 0, 0, 1, 75.2613, 35.3105)">
     <g id="svg_52">
      <text id="svg_53" font-family="'DroidSans'" fill="#8C8C8C" font-size="2.49999">3</text>
     </g>
    </g>
    <g id="svg_54" transform="matrix(1, 0, 0, 1, 53.4665, 37.0586)">
     <g id="svg_55">
      <text id="svg_56" font-family="'DroidSans'" fill="#787878" font-size="3.49999">PB3(SDI/SDO)</text>
     </g>
    </g>
   </g>
  </g>
 </g>
</svg>